<svg width="1082" height="500" viewBox="0 0 1082 500" fill="none" xmlns="http://www.w3.org/2000/svg">
<path d="M550.957 267.955H576.526L587.392 281.825L601.646 298.189L623.571 325.227H594.935L579.594 306.882L570.517 293.842L550.957 267.955ZM624.466 249.545C624.466 263.949 621.696 276.158 616.156 286.172C610.616 296.186 603.116 303.793 593.656 308.991C584.239 314.19 573.67 316.79 561.952 316.79C550.19 316.79 539.601 314.169 530.183 308.928C520.766 303.686 513.287 296.08 507.747 286.108C502.25 276.094 499.501 263.906 499.501 249.545C499.501 235.142 502.25 222.933 507.747 212.919C513.287 202.905 520.766 195.298 530.183 190.099C539.601 184.901 550.19 182.301 561.952 182.301C573.67 182.301 584.239 184.901 593.656 190.099C603.116 195.298 610.616 202.905 616.156 212.919C621.696 222.933 624.466 235.142 624.466 249.545ZM592.122 249.545C592.122 241.023 590.908 233.821 588.479 227.94C586.092 222.06 582.641 217.607 578.124 214.581C573.649 211.555 568.259 210.043 561.952 210.043C555.688 210.043 550.297 211.555 545.78 214.581C541.263 217.607 537.79 222.06 535.361 227.94C532.974 233.821 531.781 241.023 531.781 249.545C531.781 258.068 532.974 265.27 535.361 271.151C537.79 277.031 541.263 281.484 545.78 284.51C550.297 287.536 555.688 289.048 561.952 289.048C568.259 289.048 573.649 287.536 578.124 284.51C582.641 281.484 586.092 277.031 588.479 271.151C590.908 265.27 592.122 258.068 592.122 249.545ZM661.46 315L635.892 216.818H667.277L680.508 279.716H681.339L695.529 216.818H726.147L740.721 279.268H741.552L754.4 216.818H785.785L760.153 315H726.723L711.382 257.791H710.295L694.954 315H661.46ZM798.33 315V216.818H829.587V315H798.33ZM813.99 205.376C809.601 205.376 805.83 203.928 802.676 201.03C799.523 198.089 797.946 194.553 797.946 190.419C797.946 186.328 799.523 182.834 802.676 179.936C805.83 176.996 809.601 175.526 813.99 175.526C818.422 175.526 822.193 176.996 825.304 179.936C828.457 182.834 830.034 186.328 830.034 190.419C830.034 194.553 828.457 198.089 825.304 201.03C822.193 203.928 818.422 205.376 813.99 205.376ZM877.671 289.24L877.799 251.974H882.145L909.759 216.818H945.171L904.134 267.188H895.888L877.671 289.24ZM849.482 315V184.091H880.739V315H849.482ZM910.462 315L884.766 274.219L905.348 252.038L946.577 315H910.462Z" fill="white"/>
<path fill-rule="evenodd" clip-rule="evenodd" d="M294 410C382.366 410 454 338.366 454 250C454 161.634 382.366 90 294 90C205.634 90 134 161.634 134 250C134 338.366 205.634 410 294 410ZM294 379.764C365.667 379.764 423.764 321.667 423.764 250C423.764 178.333 365.667 120.236 294 120.236C222.333 120.236 164.236 178.333 164.236 250C164.236 321.667 222.333 379.764 294 379.764Z" fill="white"/>
<path fill-rule="evenodd" clip-rule="evenodd" d="M294 350.368C349.431 350.368 394.367 305.431 394.367 250C394.367 247.775 394.295 245.566 394.152 243.377C334.953 287.358 309.068 274.837 279.366 260.47C265.085 253.562 249.921 246.227 229.748 244.541C216.246 243.412 204.262 245.535 193.633 249.912C193.633 249.941 193.633 249.971 193.633 250C193.633 305.431 238.569 350.368 294 350.368Z" fill="white"/>
<path d="M394.367 368.694L421.306 395.632L429.323 387.615L451.364 409.655L440.684 361.56L429.994 372.25L421.093 341.969L394.367 368.694Z" fill="white"/>
</svg>
