<svg width="500" height="500" viewBox="0 0 500 500" fill="none" xmlns="http://www.w3.org/2000/svg">
<path d="M199.267 425.841H206.586L210.265 430.574L213.884 434.79L220.705 443.341H212.671L207.978 437.574L205.571 434.153L199.267 425.841ZM221.321 419.636C221.321 424.078 220.48 427.856 218.796 430.972C217.125 434.087 214.845 436.467 211.955 438.111C209.078 439.741 205.843 440.557 202.25 440.557C198.631 440.557 195.383 439.735 192.506 438.091C189.629 436.447 187.355 434.067 185.685 430.952C184.015 427.836 183.179 424.064 183.179 419.636C183.179 415.195 184.015 411.417 185.685 408.301C187.355 405.186 189.629 402.812 192.506 401.182C195.383 399.538 198.631 398.716 202.25 398.716C205.843 398.716 209.078 399.538 211.955 401.182C214.845 402.812 217.125 405.186 218.796 408.301C220.48 411.417 221.321 415.195 221.321 419.636ZM212.591 419.636C212.591 416.759 212.16 414.333 211.299 412.358C210.45 410.383 209.25 408.884 207.699 407.864C206.148 406.843 204.332 406.332 202.25 406.332C200.169 406.332 198.353 406.843 196.801 407.864C195.25 408.884 194.044 410.383 193.182 412.358C192.334 414.333 191.909 416.759 191.909 419.636C191.909 422.513 192.334 424.939 193.182 426.915C194.044 428.89 195.25 430.388 196.801 431.409C198.353 432.43 200.169 432.94 202.25 432.94C204.332 432.94 206.148 432.43 207.699 431.409C209.25 430.388 210.45 428.89 211.299 426.915C212.16 424.939 212.591 422.513 212.591 419.636ZM233.566 440L225.254 409.455H233.825L238.558 429.977H238.836L243.768 409.455H252.18L257.191 429.858H257.45L262.103 409.455H270.654L262.362 440H253.393L248.143 420.79H247.765L242.515 440H233.566ZM275.174 440V409.455H283.645V440H275.174ZM279.429 405.517C278.17 405.517 277.089 405.099 276.188 404.264C275.3 403.416 274.855 402.402 274.855 401.222C274.855 400.055 275.3 399.054 276.188 398.219C277.089 397.37 278.17 396.946 279.429 396.946C280.689 396.946 281.763 397.37 282.651 398.219C283.552 399.054 284.003 400.055 284.003 401.222C284.003 402.402 283.552 403.416 282.651 404.264C281.763 405.099 280.689 405.517 279.429 405.517ZM298.108 431.21L298.127 421.048H299.36L309.145 409.455H318.869L305.724 424.807H303.716L298.108 431.21ZM290.431 440V399.273H298.903V440H290.431ZM309.522 440L300.534 426.696L306.181 420.71L319.446 440H309.522Z" fill="white"/>
<path fill-rule="evenodd" clip-rule="evenodd" d="M250 372C338.366 372 410 300.366 410 212C410 123.634 338.366 52 250 52C161.634 52 90 123.634 90 212C90 300.366 161.634 372 250 372ZM250 341.764C321.667 341.764 379.764 283.667 379.764 212C379.764 140.333 321.667 82.2362 250 82.2362C178.333 82.2362 120.236 140.333 120.236 212C120.236 283.667 178.333 341.764 250 341.764Z" fill="white"/>
<path fill-rule="evenodd" clip-rule="evenodd" d="M250 312.368C305.431 312.368 350.367 267.431 350.367 212C350.367 209.775 350.295 207.566 350.152 205.377C290.953 249.358 265.068 236.837 235.365 222.47C221.084 215.562 205.921 208.227 185.748 206.541C172.246 205.412 160.262 207.535 149.632 211.912C149.632 211.941 149.632 211.971 149.632 212C149.632 267.431 194.568 312.368 250 312.368Z" fill="white"/>
<path d="M350.368 330.694L377.306 357.632L385.324 349.615L407.364 371.655L396.685 323.56L385.994 334.25L377.093 303.969L350.368 330.694Z" fill="white"/>
</svg>
