<svg width="500" height="500" viewBox="0 0 500 500" fill="none" xmlns="http://www.w3.org/2000/svg">
<path fill-rule="evenodd" clip-rule="evenodd" d="M249.5 440C354.71 440 440 354.71 440 249.5C440 144.29 354.71 59 249.5 59C144.29 59 59 144.29 59 249.5C59 354.71 144.29 440 249.5 440ZM249.5 404C334.828 404 404 334.828 404 249.5C404 164.172 334.828 95 249.5 95C164.172 95 95 164.172 95 249.5C95 334.828 164.172 404 249.5 404Z" fill="#FF2C5F"/>
<path fill-rule="evenodd" clip-rule="evenodd" d="M249.5 369C315.498 369 369 315.498 369 249.5C369 246.85 368.914 244.221 368.744 241.614C298.26 293.979 267.44 279.071 232.076 261.965C215.073 253.741 197.019 245.008 173 243C156.924 241.656 142.655 244.183 130 249.395C130 249.43 130 249.465 130 249.5C130 315.498 183.502 369 249.5 369Z" fill="#FF2C5F"/>
<path d="M369 390.82L401.073 422.893L410.619 413.347L436.861 439.589L424.146 382.326L411.418 395.054L400.82 359L369 390.82Z" fill="#FF2C5F"/>
</svg>
